<svg id="Capa_1" enable-background="new 0 0 512 512" height="512" viewBox="0 0 512 512" width="512" xmlns="http://www.w3.org/2000/svg"><g id="XMLID_1011_"><path id="XMLID_2708_" d="m308.637 267.72h-47.019c-106.792 0-193.364 86.572-193.364 193.364 0 22.598 18.319 40.917 40.917 40.917h351.913c22.597-.001 40.916-18.32 40.916-40.918 0-106.792-86.572-193.363-193.363-193.363z" fill="#d5ea7a"/><path id="XMLID_2640_" d="m354 99.833v67.72c0 38.108-30.892 69-69 69-38.108 0-69-30.892-69-69v-67.72z" fill="#f4c6af"/><path id="XMLID_2966_" d="m421 462h-272c-22.091 0-40 17.909-40 40h352c0-22.091-17.909-40-40-40z" fill="#9da5be"/><path id="XMLID_2785_" d="m404.279 422h-238.558c-18.071 0-32.721-14.65-32.721-32.721v-158.558c0-18.071 14.65-32.721 32.721-32.721h238.558c18.071 0 32.721 14.65 32.721 32.721v158.558c0 18.071-14.65 32.721-32.721 32.721z" fill="#e0e1e7"/><path id="XMLID_2786_" d="m253 343h64v159h-64z" fill="#bedaff"/><path id="XMLID_1390_" d="m276.972 10h102.362v37.529c0 33.674-27.298 60.972-60.972 60.972h-102.362v-37.529c0-33.674 27.298-60.972 60.972-60.972z" fill="#c68966"/><g id="XMLID_495_"><path id="XMLID_496_" d="m40.405 86.984c-3.905-3.905-10.237-3.905-14.142 0l-23.334 23.335c-3.905 3.905-3.905 10.237 0 14.142l23.334 23.334c1.953 1.953 4.512 2.929 7.071 2.929s5.119-.976 7.071-2.929c3.905-3.905 3.905-10.237 0-14.143l-16.263-16.262 16.264-16.264c3.905-3.905 3.905-10.237-.001-14.142z"/><path id="XMLID_519_" d="m140.06 117.39-16.264 16.263c-3.905 3.905-3.905 10.237 0 14.143 1.953 1.953 4.512 2.929 7.071 2.929s5.119-.976 7.071-2.929l23.334-23.334c3.905-3.905 3.905-10.237 0-14.142l-23.334-23.335c-3.905-3.905-10.237-3.905-14.142 0s-3.906 10.237 0 14.142z"/><path id="XMLID_526_" d="m70.186 153.319c1.045.347 2.106.512 3.15.512 4.192 0 8.098-2.658 9.49-6.854l17.542-52.875c1.739-5.242-1.101-10.901-6.342-12.64-5.244-1.737-10.901 1.101-12.64 6.342l-17.542 52.875c-1.74 5.242 1.1 10.901 6.342 12.64z"/><path id="XMLID_529_" d="m447 312.058v-81.338c0-23.555-19.164-42.72-42.721-42.72h-42.945c1.77-6.611 2.666-13.447 2.666-20.447v-65.729c15.476-13.029 25.333-32.528 25.333-54.294v-37.53c0-5.523-4.477-10-10-10h-102.361c-39.134 0-70.972 31.838-70.972 70.972v96.581c0 7.001.896 13.836 2.666 20.447h-42.945c-23.556 0-42.721 19.165-42.721 42.721v81.563c-15.344 14.295-28.326 30.764-38.623 49.017-2.714 4.81-1.014 10.909 3.796 13.623 1.553.876 3.24 1.292 4.904 1.292 3.491 0 6.881-1.831 8.719-5.089 6.061-10.743 13.159-20.799 21.204-30.076v48.229c0 23.556 19.165 42.72 42.721 42.72h77.279v20h-94c-23.682 0-43.558 16.556-48.696 38.698-12.739-3.821-22.05-15.648-22.05-29.615 0-2.821.064-5.674.192-8.477.251-5.518-4.018-10.193-9.535-10.444-5.496-.283-10.193 4.017-10.444 9.534-.141 3.105-.213 6.264-.213 9.387 0 27.961 22.656 50.722 50.574 50.908.058.001.114.009.172.009h.17 351.83.083c28.076 0 50.917-22.841 50.917-50.917 0-56.548-23.639-110.595-65-149.025zm-221-241.086c0-28.106 22.866-50.972 50.972-50.972h92.362v27.529c0 28.105-22.866 50.971-50.972 50.971h-92.362zm0 96.581v-49.053h92.362c9.039 0 17.68-1.717 25.638-4.812v53.864c0 7.085-1.235 13.936-3.648 20.447h-110.704c-2.413-6.51-3.648-13.36-3.648-20.446zm-60.279 244.447c-12.529 0-22.721-10.192-22.721-22.721v-158.558c0-12.529 10.192-22.721 22.721-22.721h238.559c12.528 0 22.72 10.192 22.72 22.721v158.559c0 12.528-10.192 22.72-22.721 22.72h-77.279v-69c0-5.522-4.477-10-10-10h-64c-5.523 0-10 4.478-10 10v69zm-45.008 80c4.127-11.641 15.249-20 28.287-20h94v20zm142.287 0v-139h44v139zm64 0v-20h94c13.038 0 24.159 8.359 28.287 20zm142.712-1.234c-5.114-22.176-25.005-38.766-48.712-38.766h-94v-20h77.279c23.557 0 42.721-19.164 42.721-42.721v-48.496c28.823 33.178 45 75.884 45 120.3 0 14.053-9.428 25.938-22.288 29.683z"/><path id="XMLID_762_" d="m68.64 400.66c-1.86 1.859-2.93 4.439-2.93 7.069 0 2.641 1.07 5.21 2.93 7.07 1.86 1.87 4.44 2.93 7.07 2.93s5.21-1.06 7.07-2.93c1.86-1.86 2.93-4.43 2.93-7.07 0-2.63-1.07-5.21-2.93-7.069-1.86-1.86-4.44-2.931-7.07-2.931s-5.21 1.071-7.07 2.931z"/></g></g></svg>