<svg width="299" height="64" viewBox="0 0 299 64" fill="none" xmlns="http://www.w3.org/2000/svg">
<path d="M91.125 48.9121C91.125 48.5137 90.9756 48.3145 90.6768 48.3145C90.3838 48.3145 90.0176 48.3672 89.5781 48.4727C89.1445 48.5781 88.6787 48.7422 88.1807 48.9648C87.0439 49.4746 86.0156 50.1777 85.0957 51.0742C84.9727 51.1797 84.8057 51.2324 84.5947 51.2324C84.3896 51.2324 84.2168 51.1826 84.0762 51.083C83.9355 50.9775 83.8652 50.8428 83.8652 50.6787C83.8652 50.5146 83.9004 50.3418 83.9707 50.1602C84.041 49.9727 84.1143 49.7529 84.1904 49.501C84.2666 49.2432 84.3457 48.9883 84.4277 48.7363C84.6387 48.1328 84.835 47.7344 85.0166 47.541C85.3506 47.2656 86.2441 46.9609 87.6973 46.627C89.3086 46.2578 90.8848 46.0732 92.4258 46.0732C93.0703 46.0732 93.6035 46.3105 94.0254 46.7852C94.3887 47.1953 94.5703 47.626 94.5703 48.0771C94.5703 48.4639 94.2832 49.3809 93.709 50.8281C92.8008 53.1367 91.8721 54.9414 90.9229 56.2422C90.6592 56.6055 90.3984 56.9014 90.1406 57.1299C89.7656 57.4229 89.2734 57.6689 88.6641 57.8682C87.6328 58.2139 86.9619 58.3867 86.6514 58.3867C86.3467 58.3867 86.0449 58.3457 85.7461 58.2637C85.4473 58.1875 85.1572 58.0879 84.876 57.9648C84.6006 57.8359 84.3428 57.6924 84.1025 57.5342C83.8623 57.3701 83.6514 57.209 83.4697 57.0508C83.083 56.7051 82.8896 56.4238 82.8896 56.207C82.8896 56.002 83.1387 55.6709 83.6367 55.2139C84.1465 54.7451 84.5654 54.5107 84.8936 54.5107C85.1162 54.5107 85.3857 54.5957 85.7021 54.7656L86.3789 55.1523C86.5254 55.2285 86.6543 55.2666 86.7656 55.2666C86.8828 55.2666 87.0439 55.1846 87.249 55.0205C87.4541 54.8506 87.6738 54.6279 87.9082 54.3525C88.1426 54.0771 88.3828 53.7607 88.6289 53.4033C88.8809 53.0459 89.124 52.6797 89.3584 52.3047C89.5986 51.9238 89.8242 51.5459 90.0352 51.1709C90.252 50.7959 90.4395 50.4531 90.5977 50.1426C90.9492 49.4688 91.125 49.0586 91.125 48.9121ZM109.802 51.5049C110.065 51.5049 110.197 51.6396 110.197 51.9092C110.197 52.3369 109.916 52.9404 109.354 53.7197C108.961 54.2646 108.152 55.0205 106.928 55.9873C105.469 57.1299 104.297 57.7012 103.412 57.7012C102.744 57.7012 102.24 57.4199 101.9 56.8574C101.695 56.5176 101.528 56.0195 101.399 55.3633L100.617 55.9258C98.4668 57.4141 96.8613 58.1582 95.8008 58.1582C94.916 58.1582 94.207 57.8359 93.6738 57.1914C93.2051 56.6113 92.9707 55.917 92.9707 55.1084C92.9707 54.2178 93.2754 53.5146 93.8848 52.999C95.127 51.9561 96.6709 51.0977 98.5166 50.4238C99.2666 50.1484 99.7412 50.0107 99.9404 50.0107C100.14 50.0107 100.321 50.0459 100.485 50.1162C100.655 50.1807 100.822 50.2656 100.986 50.3711C101.373 50.6348 101.566 50.8896 101.566 51.1357C101.566 51.335 101.443 51.4961 101.197 51.6191C101.121 51.6602 100.992 51.7158 100.811 51.7861C100.629 51.8564 100.406 51.9531 100.143 52.0762C99.4336 52.4102 98.7422 52.8145 98.0684 53.2891C97.5879 53.6992 97.3477 54.0273 97.3477 54.2734C97.3477 54.5137 97.5176 54.6338 97.8574 54.6338C98.1387 54.6338 98.7012 54.3848 99.5449 53.8867C99.5449 53.8867 99.7939 53.7344 100.292 53.4297C100.825 53.0957 101.253 52.791 101.575 52.5156C101.575 52.5156 101.71 52.0762 101.979 51.1973C102.478 49.627 103.031 48.3291 103.641 47.3037C104.719 45.2354 105.803 44.2012 106.893 44.2012C107.291 44.2012 107.607 44.2744 107.842 44.4209C108.264 44.6846 108.475 44.9775 108.475 45.2998C108.475 45.6162 108.416 45.9531 108.299 46.3105C108.182 46.668 108.026 47.0225 107.833 47.374C107.646 47.7256 107.429 48.0742 107.183 48.4199L105.68 50.4062C105.428 50.7285 105.205 51.042 105.012 51.3467C104.672 52.0791 104.502 52.7061 104.502 53.2275C104.502 53.9775 104.774 54.3525 105.319 54.3525C105.63 54.3525 106.189 54.0273 106.998 53.377L108.035 52.498C108.521 52.0645 109.002 51.7598 109.477 51.584C109.611 51.5312 109.72 51.5049 109.802 51.5049ZM120.419 51.54C120.7 51.54 120.841 51.6982 120.841 52.0146C120.841 52.2256 120.768 52.4922 120.621 52.8145C120.48 53.1309 120.275 53.4297 120.006 53.7109C119.736 53.9863 119.426 54.2734 119.074 54.5723C118.729 54.8711 118.321 55.1846 117.853 55.5127C117.39 55.8408 116.877 56.166 116.314 56.4883C115.752 56.8105 115.154 57.1006 114.521 57.3584C113.121 57.9326 111.765 58.2197 110.452 58.2197C109.45 58.2197 108.574 57.959 107.824 57.4375C107.039 56.8926 106.646 56.2305 106.646 55.4512C106.646 54.2266 107.306 53.0635 108.624 51.9619C109.761 51.0127 111.1 50.2773 112.641 49.7559C113.578 49.4395 114.372 49.2812 115.022 49.2812C115.55 49.2812 115.995 49.4102 116.358 49.668C116.745 49.9492 116.938 50.3271 116.938 50.8018C116.938 51.5459 116.35 52.3691 115.172 53.2715C114.984 53.418 114.814 53.541 114.662 53.6406L114.346 53.8516C113.76 54.2617 112.869 54.7217 111.674 55.2314C112.043 55.4248 112.386 55.5215 112.702 55.5215C113.024 55.5215 113.312 55.4834 113.563 55.4072C113.821 55.3311 114.111 55.2227 114.434 55.082C114.756 54.9414 115.099 54.7744 115.462 54.5811C115.831 54.3818 116.203 54.165 116.578 53.9307C117.416 53.4092 118.143 52.876 118.758 52.3311C119.08 52.0322 119.49 51.7949 119.988 51.6191C120.152 51.5664 120.296 51.54 120.419 51.54ZM110.725 54.0098L111.208 53.7637C111.366 53.6816 111.507 53.6055 111.63 53.5352C112.813 52.8555 113.487 52.4365 113.651 52.2783C113.815 52.1201 113.897 52.0117 113.897 51.9531C113.897 51.8887 113.88 51.8154 113.845 51.7334C113.81 51.6514 113.763 51.5781 113.704 51.5137C113.563 51.3496 113.414 51.2676 113.256 51.2676C113.098 51.2676 112.922 51.2969 112.729 51.3555C112.541 51.4141 112.351 51.4961 112.157 51.6016C111.964 51.7012 111.776 51.8242 111.595 51.9707C111.419 52.1113 111.264 52.2637 111.129 52.4277C110.818 52.7969 110.663 53.1162 110.663 53.3857C110.663 53.6553 110.684 53.8633 110.725 54.0098ZM126.36 47.8398C126.19 47.9805 126.006 48.0977 125.807 48.1914C125.607 48.2793 125.385 48.3232 125.139 48.3232C124.893 48.3232 124.655 48.2822 124.427 48.2002C124.198 48.1182 123.999 48.0039 123.829 47.8574C123.46 47.541 123.275 47.1367 123.275 46.6445C123.275 45.8887 123.908 45.3262 125.174 44.957C125.602 44.8281 125.953 44.7637 126.229 44.7637C126.504 44.7637 126.709 44.7959 126.844 44.8604C126.984 44.9189 127.099 44.998 127.187 45.0977C127.362 45.2969 127.45 45.502 127.45 45.7129C127.45 45.918 127.424 46.1055 127.371 46.2754C127.324 46.4453 127.254 46.6211 127.16 46.8027C127.066 46.9844 126.952 47.166 126.817 47.3477C126.683 47.5293 126.53 47.6934 126.36 47.8398ZM124.146 57.5166C123.7 57.7451 123.267 57.9268 122.845 58.0615C122.423 58.2021 122.007 58.2725 121.597 58.2725C121.192 58.2725 120.771 58.1758 120.331 57.9824C119.897 57.7832 119.511 57.5195 119.171 57.1914C118.415 56.459 118.037 55.6445 118.037 54.748C118.037 53.9219 118.283 53.084 118.775 52.2344C119.227 51.4668 119.801 50.8223 120.498 50.3008C121.195 49.7793 121.843 49.5186 122.44 49.5186C123.296 49.5186 123.753 49.7588 123.812 50.2393C123.829 50.3857 123.838 50.5557 123.838 50.749C123.838 50.9424 123.791 51.165 123.697 51.417C123.609 51.6631 123.492 51.9121 123.346 52.1641C123.205 52.4102 123.047 52.6533 122.871 52.8936C122.701 53.1279 122.537 53.3418 122.379 53.5352C122.074 53.9043 121.831 54.1709 121.649 54.335C121.649 54.5342 121.799 54.7393 122.098 54.9502C122.379 55.1494 122.616 55.249 122.81 55.249C123.009 55.249 123.24 55.2021 123.504 55.1084C123.773 55.0146 124.049 54.8887 124.33 54.7305C124.617 54.5723 124.907 54.3906 125.2 54.1855C125.499 53.9805 125.792 53.7695 126.079 53.5527L127.688 52.2959C128.326 51.833 128.845 51.6016 129.243 51.6016C129.401 51.6016 129.521 51.6602 129.604 51.7773C129.691 51.8887 129.735 52.0205 129.735 52.1729C129.735 52.3252 129.659 52.5361 129.507 52.8057C129.354 53.0693 129.144 53.3623 128.874 53.6846C128.61 54.0068 128.3 54.3438 127.942 54.6953C127.585 55.0469 127.198 55.3926 126.782 55.7324C126.366 56.0723 125.933 56.3975 125.481 56.708C125.036 57.0127 124.591 57.2822 124.146 57.5166ZM142.972 51.3994C143.159 51.3994 143.253 51.5576 143.253 51.874C143.253 52.4189 142.872 53.125 142.11 53.9922L141.609 54.502C140.092 56.0195 138.662 57.0303 137.32 57.5342C136.488 57.8447 135.891 57.8301 135.527 57.4902C135.229 57.2031 134.991 56.7402 134.815 56.1016L134.604 55.3369L132.732 56.4883L131.651 57.1035C130.362 57.8066 129.396 58.1582 128.751 58.1582C127.925 58.1582 127.236 57.8389 126.686 57.2002C126.158 56.5967 125.895 55.8965 125.895 55.0996C125.895 54.3145 126.208 53.6143 126.835 52.999C127.731 52.1201 129.146 51.3145 131.08 50.582C132.908 49.8965 134.385 49.5537 135.51 49.5537C135.891 49.5537 136.081 49.7412 136.081 50.1162C136.081 50.374 136.031 50.5674 135.932 50.6963C135.832 50.8252 135.627 50.957 135.316 51.0918L134.209 51.5664C132.568 52.252 131.367 52.9639 130.605 53.7021C130.389 53.9072 130.28 54.1064 130.28 54.2998C130.28 54.4932 130.436 54.5898 130.746 54.5898C131.051 54.5898 131.76 54.2617 132.873 53.6055L133.603 53.1748C134.733 52.4951 135.68 52.1553 136.441 52.1553C137.086 52.1553 137.514 52.4395 137.725 53.0078C137.777 53.1602 137.827 53.3154 137.874 53.4736C137.921 53.626 137.968 53.7637 138.015 53.8867C138.12 54.1738 138.214 54.3174 138.296 54.3174C138.384 54.3174 138.507 54.2764 138.665 54.1943C138.823 54.1064 138.996 53.998 139.184 53.8691C139.377 53.7344 139.576 53.5879 139.781 53.4297L140.845 52.5771C141.788 51.792 142.497 51.3994 142.972 51.3994ZM146.725 49.4395C146.783 49.5566 146.812 49.7119 146.812 49.9053C146.812 50.0928 146.716 50.3066 146.522 50.5469C146.675 50.7051 146.868 50.8896 147.103 51.1006C147.343 51.3057 147.574 51.5312 147.797 51.7773C148.336 52.3809 148.605 52.958 148.605 53.5088C148.605 53.8721 148.356 54.3145 147.858 54.8359C147.706 55 147.539 55.1523 147.357 55.293C147.967 55.0586 148.699 54.5928 149.555 53.8955L150.583 53.0518C151.181 52.5537 151.579 52.2666 151.778 52.1904C151.983 52.1143 152.168 52.0762 152.332 52.0762C152.496 52.0762 152.654 52.1172 152.807 52.1992C152.965 52.2812 153.044 52.416 153.044 52.6035C153.044 52.7852 153.015 52.9639 152.956 53.1396C152.897 53.3096 152.827 53.4678 152.745 53.6143C152.628 53.8252 152.458 54.042 152.235 54.2646C151.62 54.8447 151.022 55.3779 150.442 55.8643C149.868 56.3447 149.273 56.7578 148.658 57.1035C147.357 57.8301 145.916 58.1934 144.334 58.1934C143.449 58.1934 142.682 57.9678 142.031 57.5166C141.762 57.3291 141.554 57.1357 141.407 56.9365C141.267 56.7314 141.196 56.5732 141.196 56.4619C141.196 56.3447 141.234 56.2246 141.311 56.1016C141.387 55.9727 141.489 55.8408 141.618 55.7061C141.747 55.5713 141.894 55.4365 142.058 55.3018C142.228 55.167 142.4 55.0469 142.576 54.9414C142.986 54.7012 143.291 54.5811 143.49 54.5811C143.695 54.5811 143.851 54.6074 143.956 54.6602C144.062 54.707 144.158 54.7598 144.246 54.8184C144.486 54.9824 144.656 55.0645 144.756 55.0645C144.996 55.0645 145.116 54.9004 145.116 54.5723C145.116 54.2676 144.955 53.9014 144.633 53.4736C144.504 53.2979 144.369 53.125 144.229 52.9551C144.088 52.7852 143.971 52.6182 143.877 52.4541C143.689 52.6709 143.455 52.8936 143.174 53.1221L142.321 53.8428C141.729 54.3525 141.182 54.5957 140.678 54.5723C140.385 54.5488 140.238 54.2236 140.238 53.5967C140.238 53.4854 140.247 53.377 140.265 53.2715C140.294 53.0898 140.473 52.8701 140.801 52.6123C141.129 52.3545 141.366 52.1787 141.513 52.085C141.665 51.9854 141.794 51.8975 141.899 51.8213L142.831 51.1885C142.831 50.5908 143.177 50.043 143.868 49.5449C144.524 49.0762 145.175 48.8418 145.819 48.8418C146.229 48.8418 146.531 49.041 146.725 49.4395ZM162.167 55.8027C162.36 55.7207 162.63 55.5918 162.976 55.416C165.091 54.332 166.251 53.7344 166.456 53.623L166.825 53.4209C167.206 53.1748 167.382 52.9814 167.353 52.8408C167.288 52.542 167.127 52.4219 166.869 52.4805C166.611 52.5332 166.342 52.6064 166.061 52.7002C165.785 52.7939 165.492 52.9082 165.182 53.043C164.531 53.3125 163.96 53.582 163.468 53.8516C161.745 54.8418 160.708 55.4424 160.356 55.6533C160.104 56.2217 159.879 56.7871 159.68 57.3496L158.616 60.3555C158.282 61.2871 157.945 61.917 157.605 62.2451C157.424 62.4268 157.222 62.5176 156.999 62.5176C156.448 62.5176 156.015 62.3242 155.698 61.9375C155.382 61.5566 155.224 61.0703 155.224 60.4785C155.224 59.8926 155.3 59.3125 155.452 58.7383C155.604 58.1699 155.815 57.5928 156.085 57.0068C156.63 55.8232 157.359 54.7188 158.273 53.6934C158.83 52.1992 159.756 50.749 161.051 49.3428C161.842 48.4873 162.577 47.8838 163.257 47.5322C163.597 47.3564 163.887 47.2686 164.127 47.2686C164.367 47.2686 164.549 47.3242 164.672 47.4355C164.795 47.541 164.856 47.6758 164.856 47.8398C164.856 47.998 164.807 48.2002 164.707 48.4463C164.607 48.6924 164.473 48.9678 164.303 49.2725C164.133 49.5771 163.934 49.9023 163.705 50.248L162.976 51.3115C162.917 51.3994 162.888 51.4785 162.888 51.5488C162.888 51.6602 162.955 51.7158 163.09 51.7158C163.242 51.7158 163.523 51.6191 163.934 51.4258L165.34 50.7754C166.57 50.2188 167.748 49.9404 168.873 49.9404C169.459 49.9404 170.01 50.2188 170.525 50.7754C171.047 51.3379 171.308 51.9414 171.308 52.5859C171.308 53.582 170.9 54.3496 170.086 54.8887L168.996 55.6094C168.604 55.8555 168.199 56.0986 167.783 56.3389L166.518 57.0332C165.094 57.7715 163.992 58.1406 163.213 58.1406C162.439 58.1406 161.877 58.0439 161.525 57.8506C161.174 57.6572 160.998 57.3848 160.998 57.0332C160.998 56.5586 161.388 56.1484 162.167 55.8027ZM186.319 51.3994C186.507 51.3994 186.601 51.5576 186.601 51.874C186.601 52.4189 186.22 53.125 185.458 53.9922L184.957 54.502C183.439 56.0195 182.01 57.0303 180.668 57.5342C179.836 57.8447 179.238 57.8301 178.875 57.4902C178.576 57.2031 178.339 56.7402 178.163 56.1016L177.952 55.3369L176.08 56.4883L174.999 57.1035C173.71 57.8066 172.743 58.1582 172.099 58.1582C171.272 58.1582 170.584 57.8389 170.033 57.2002C169.506 56.5967 169.242 55.8965 169.242 55.0996C169.242 54.3145 169.556 53.6143 170.183 52.999C171.079 52.1201 172.494 51.3145 174.428 50.582C176.256 49.8965 177.732 49.5537 178.857 49.5537C179.238 49.5537 179.429 49.7412 179.429 50.1162C179.429 50.374 179.379 50.5674 179.279 50.6963C179.18 50.8252 178.975 50.957 178.664 51.0918L177.557 51.5664C175.916 52.252 174.715 52.9639 173.953 53.7021C173.736 53.9072 173.628 54.1064 173.628 54.2998C173.628 54.4932 173.783 54.5898 174.094 54.5898C174.398 54.5898 175.107 54.2617 176.221 53.6055L176.95 53.1748C178.081 52.4951 179.027 52.1553 179.789 52.1553C180.434 52.1553 180.861 52.4395 181.072 53.0078C181.125 53.1602 181.175 53.3154 181.222 53.4736C181.269 53.626 181.315 53.7637 181.362 53.8867C181.468 54.1738 181.562 54.3174 181.644 54.3174C181.731 54.3174 181.854 54.2764 182.013 54.1943C182.171 54.1064 182.344 53.998 182.531 53.8691C182.725 53.7344 182.924 53.5879 183.129 53.4297L184.192 52.5771C185.136 51.792 185.845 51.3994 186.319 51.3994ZM184.025 55.0996C183.914 55.0996 183.806 55.0732 183.7 55.0205C183.589 54.9678 183.486 54.8828 183.393 54.7656C183.188 54.5078 183.085 54.1562 183.085 53.7109C183.085 53.2363 183.369 52.6445 183.938 51.9355C184.488 51.25 185.13 50.6582 185.862 50.1602C186.647 49.6211 187.321 49.3516 187.884 49.3516C188.382 49.3516 188.719 49.4922 188.895 49.7734L189.018 49.9668C189.111 50.1133 189.205 50.1865 189.299 50.1865C189.393 50.1865 189.539 50.1777 189.738 50.1602L190.986 50.0723C191.18 50.0547 191.332 50.0459 191.443 50.0459C191.555 50.0459 191.681 50.0869 191.821 50.1689C191.968 50.2451 192.097 50.3477 192.208 50.4766C192.454 50.7695 192.577 51.0918 192.577 51.4434C192.577 51.8066 192.176 52.3779 191.373 53.1572L190.793 53.7373C190.377 54.165 190.169 54.4346 190.169 54.5459C190.169 54.6572 190.222 54.7568 190.327 54.8447C190.433 54.9268 190.547 54.9678 190.67 54.9678C190.793 54.9678 190.931 54.9355 191.083 54.8711C191.241 54.8008 191.435 54.7012 191.663 54.5723C191.892 54.4375 192.152 54.2764 192.445 54.0889C193.248 53.5615 193.784 53.1982 194.054 52.999L194.783 52.4805C195.281 52.1289 195.636 51.9531 195.847 51.9531C196.058 51.9531 196.23 52 196.365 52.0938C196.5 52.1816 196.567 52.3369 196.567 52.5596C196.567 52.7822 196.453 53.0811 196.225 53.4561C195.996 53.8311 195.747 54.1562 195.478 54.4316C195.214 54.707 194.956 54.9619 194.704 55.1963C194.452 55.4307 194.153 55.6855 193.808 55.9609C193.468 56.2305 193.09 56.5059 192.674 56.7871C192.258 57.0625 191.818 57.3115 191.355 57.5342C190.307 58.0439 189.343 58.2988 188.464 58.2988C187.181 58.2988 186.398 57.9678 186.117 57.3057C186.029 57.1064 185.985 56.8838 185.985 56.6377C185.985 56.3916 186.032 56.1279 186.126 55.8467C186.22 55.5596 186.343 55.2754 186.495 54.9941C186.8 54.4375 187.16 53.9453 187.576 53.5176C187.928 53.1484 188.104 52.9287 188.104 52.8584C188.104 52.7471 188.039 52.6768 187.91 52.6475C187.787 52.6182 187.603 52.6035 187.356 52.6035C187.251 52.6035 187.025 52.7559 186.68 53.0605L185.818 53.8516C184.904 54.6836 184.307 55.0996 184.025 55.0996ZM210.226 51.3994C210.413 51.3994 210.507 51.5576 210.507 51.874C210.507 52.4189 210.126 53.125 209.364 53.9922L208.863 54.502C207.346 56.0195 205.916 57.0303 204.574 57.5342C203.742 57.8447 203.145 57.8301 202.781 57.4902C202.482 57.2031 202.245 56.7402 202.069 56.1016L201.858 55.3369L199.986 56.4883L198.905 57.1035C197.616 57.8066 196.649 58.1582 196.005 58.1582C195.179 58.1582 194.49 57.8389 193.939 57.2002C193.412 56.5967 193.148 55.8965 193.148 55.0996C193.148 54.3145 193.462 53.6143 194.089 52.999C194.985 52.1201 196.4 51.3145 198.334 50.582C200.162 49.8965 201.639 49.5537 202.764 49.5537C203.145 49.5537 203.335 49.7412 203.335 50.1162C203.335 50.374 203.285 50.5674 203.186 50.6963C203.086 50.8252 202.881 50.957 202.57 51.0918L201.463 51.5664C199.822 52.252 198.621 52.9639 197.859 53.7021C197.643 53.9072 197.534 54.1064 197.534 54.2998C197.534 54.4932 197.689 54.5898 198 54.5898C198.305 54.5898 199.014 54.2617 200.127 53.6055L200.856 53.1748C201.987 52.4951 202.934 52.1553 203.695 52.1553C204.34 52.1553 204.768 52.4395 204.979 53.0078C205.031 53.1602 205.081 53.3154 205.128 53.4736C205.175 53.626 205.222 53.7637 205.269 53.8867C205.374 54.1738 205.468 54.3174 205.55 54.3174C205.638 54.3174 205.761 54.2764 205.919 54.1943C206.077 54.1064 206.25 53.998 206.438 53.8691C206.631 53.7344 206.83 53.5879 207.035 53.4297L208.099 52.5771C209.042 51.792 209.751 51.3994 210.226 51.3994ZM231.161 51.3994C231.349 51.3994 231.442 51.5576 231.442 51.874C231.442 52.4189 231.062 53.125 230.3 53.9922L229.799 54.502C228.281 56.0195 226.852 57.0303 225.51 57.5342C224.678 57.8447 224.08 57.8301 223.717 57.4902C223.418 57.2031 223.181 56.7402 223.005 56.1016L222.794 55.3369L220.922 56.4883L219.841 57.1035C218.552 57.8066 217.585 58.1582 216.94 58.1582C216.114 58.1582 215.426 57.8389 214.875 57.2002C214.348 56.5967 214.084 55.8965 214.084 55.0996C214.084 54.3145 214.397 53.6143 215.024 52.999C215.921 52.1201 217.336 51.3145 219.27 50.582C221.098 49.8965 222.574 49.5537 223.699 49.5537C224.08 49.5537 224.271 49.7412 224.271 50.1162C224.271 50.374 224.221 50.5674 224.121 50.6963C224.021 50.8252 223.816 50.957 223.506 51.0918L222.398 51.5664C220.758 52.252 219.557 52.9639 218.795 53.7021C218.578 53.9072 218.47 54.1064 218.47 54.2998C218.47 54.4932 218.625 54.5898 218.936 54.5898C219.24 54.5898 219.949 54.2617 221.062 53.6055L221.792 53.1748C222.923 52.4951 223.869 52.1553 224.631 52.1553C225.275 52.1553 225.703 52.4395 225.914 53.0078C225.967 53.1602 226.017 53.3154 226.063 53.4736C226.11 53.626 226.157 53.7637 226.204 53.8867C226.31 54.1738 226.403 54.3174 226.485 54.3174C226.573 54.3174 226.696 54.2764 226.854 54.1943C227.013 54.1064 227.186 53.998 227.373 53.8691C227.566 53.7344 227.766 53.5879 227.971 53.4297L229.034 52.5771C229.978 51.792 230.687 51.3994 231.161 51.3994ZM249.337 52.3311C249.337 52.6064 248.977 53.1396 248.256 53.9307C247.518 54.7334 246.794 55.3867 246.085 55.8906C244.714 56.9102 243.193 57.6074 241.523 57.9824C240.891 58.1289 240.29 58.2021 239.722 58.2021C239.159 58.2021 238.69 58.1523 238.315 58.0527C237.946 57.959 237.612 57.833 237.313 57.6748C237.021 57.5107 236.766 57.3232 236.549 57.1123C236.332 56.9014 236.15 56.6787 236.004 56.4443C235.717 55.9873 235.573 55.5654 235.573 55.1787C235.573 54.792 235.617 54.4521 235.705 54.1592C235.787 53.8662 235.904 53.5879 236.057 53.3242C236.59 52.3633 237.662 51.5137 239.273 50.7754C240.545 50.1836 241.758 49.7998 242.912 49.624C243.41 49.5479 243.765 49.5098 243.976 49.5098C244.187 49.5098 244.362 49.5332 244.503 49.5801C244.649 49.6211 244.775 49.6797 244.881 49.7559C245.115 49.9258 245.232 50.1572 245.232 50.4502C245.232 50.7432 245.156 51.0215 245.004 51.2852C244.852 51.543 244.658 51.7598 244.424 51.9355C243.967 52.2754 243.457 52.4453 242.895 52.4453C242.127 52.4453 241.494 52.3457 240.996 52.1465C240.65 52.2695 240.357 52.4951 240.117 52.8232C239.918 53.0928 239.818 53.3359 239.818 53.5527C239.818 53.7637 239.865 53.9717 239.959 54.1768C240.059 54.376 240.196 54.5547 240.372 54.7129C240.759 55.0527 241.225 55.2227 241.77 55.2227C243.035 55.2227 244.509 54.5518 246.19 53.21L246.99 52.5859C247.834 51.9414 248.435 51.6191 248.792 51.6191C249.155 51.6191 249.337 51.8564 249.337 52.3311ZM246.814 55.0996C246.703 55.0996 246.595 55.0732 246.489 55.0205C246.378 54.9678 246.275 54.8828 246.182 54.7656C245.977 54.5078 245.874 54.1562 245.874 53.7109C245.874 53.2363 246.158 52.6445 246.727 51.9355C247.277 51.25 247.919 50.6582 248.651 50.1602C249.437 49.6211 250.11 49.3516 250.673 49.3516C251.171 49.3516 251.508 49.4922 251.684 49.7734L251.807 49.9668C251.9 50.1133 251.994 50.1865 252.088 50.1865C252.182 50.1865 252.328 50.1777 252.527 50.1602L253.775 50.0723C253.969 50.0547 254.121 50.0459 254.232 50.0459C254.344 50.0459 254.47 50.0869 254.61 50.1689C254.757 50.2451 254.886 50.3477 254.997 50.4766C255.243 50.7695 255.366 51.0918 255.366 51.4434C255.366 51.8066 254.965 52.3779 254.162 53.1572L253.582 53.7373C253.166 54.165 252.958 54.4346 252.958 54.5459C252.958 54.6572 253.011 54.7568 253.116 54.8447C253.222 54.9268 253.336 54.9678 253.459 54.9678C253.582 54.9678 253.72 54.9355 253.872 54.8711C254.03 54.8008 254.224 54.7012 254.452 54.5723C254.681 54.4375 254.941 54.2764 255.234 54.0889C256.037 53.5615 256.573 53.1982 256.843 52.999L257.572 52.4805C258.07 52.1289 258.425 51.9531 258.636 51.9531C258.847 51.9531 259.02 52 259.154 52.0938C259.289 52.1816 259.356 52.3369 259.356 52.5596C259.356 52.7822 259.242 53.0811 259.014 53.4561C258.785 53.8311 258.536 54.1562 258.267 54.4316C258.003 54.707 257.745 54.9619 257.493 55.1963C257.241 55.4307 256.942 55.6855 256.597 55.9609C256.257 56.2305 255.879 56.5059 255.463 56.7871C255.047 57.0625 254.607 57.3115 254.145 57.5342C253.096 58.0439 252.132 58.2988 251.253 58.2988C249.97 58.2988 249.188 57.9678 248.906 57.3057C248.818 57.1064 248.774 56.8838 248.774 56.6377C248.774 56.3916 248.821 56.1279 248.915 55.8467C249.009 55.5596 249.132 55.2754 249.284 54.9941C249.589 54.4375 249.949 53.9453 250.365 53.5176C250.717 53.1484 250.893 52.9287 250.893 52.8584C250.893 52.7471 250.828 52.6768 250.699 52.6475C250.576 52.6182 250.392 52.6035 250.146 52.6035C250.04 52.6035 249.814 52.7559 249.469 53.0605L248.607 53.8516C247.693 54.6836 247.096 55.0996 246.814 55.0996ZM265.386 47.8398C265.216 47.9805 265.031 48.0977 264.832 48.1914C264.633 48.2793 264.41 48.3232 264.164 48.3232C263.918 48.3232 263.681 48.2822 263.452 48.2002C263.224 48.1182 263.024 48.0039 262.854 47.8574C262.485 47.541 262.301 47.1367 262.301 46.6445C262.301 45.8887 262.934 45.3262 264.199 44.957C264.627 44.8281 264.979 44.7637 265.254 44.7637C265.529 44.7637 265.734 44.7959 265.869 44.8604C266.01 44.9189 266.124 44.998 266.212 45.0977C266.388 45.2969 266.476 45.502 266.476 45.7129C266.476 45.918 266.449 46.1055 266.396 46.2754C266.35 46.4453 266.279 46.6211 266.186 46.8027C266.092 46.9844 265.978 47.166 265.843 47.3477C265.708 47.5293 265.556 47.6934 265.386 47.8398ZM263.171 57.5166C262.726 57.7451 262.292 57.9268 261.87 58.0615C261.448 58.2021 261.032 58.2725 260.622 58.2725C260.218 58.2725 259.796 58.1758 259.356 57.9824C258.923 57.7832 258.536 57.5195 258.196 57.1914C257.44 56.459 257.062 55.6445 257.062 54.748C257.062 53.9219 257.309 53.084 257.801 52.2344C258.252 51.4668 258.826 50.8223 259.523 50.3008C260.221 49.7793 260.868 49.5186 261.466 49.5186C262.321 49.5186 262.778 49.7588 262.837 50.2393C262.854 50.3857 262.863 50.5557 262.863 50.749C262.863 50.9424 262.816 51.165 262.723 51.417C262.635 51.6631 262.518 51.9121 262.371 52.1641C262.23 52.4102 262.072 52.6533 261.896 52.8936C261.727 53.1279 261.562 53.3418 261.404 53.5352C261.1 53.9043 260.856 54.1709 260.675 54.335C260.675 54.5342 260.824 54.7393 261.123 54.9502C261.404 55.1494 261.642 55.249 261.835 55.249C262.034 55.249 262.266 55.2021 262.529 55.1084C262.799 55.0146 263.074 54.8887 263.355 54.7305C263.643 54.5723 263.933 54.3906 264.226 54.1855C264.524 53.9805 264.817 53.7695 265.104 53.5527L266.713 52.2959C267.352 51.833 267.87 51.6016 268.269 51.6016C268.427 51.6016 268.547 51.6602 268.629 51.7773C268.717 51.8887 268.761 52.0205 268.761 52.1729C268.761 52.3252 268.685 52.5361 268.532 52.8057C268.38 53.0693 268.169 53.3623 267.899 53.6846C267.636 54.0068 267.325 54.3438 266.968 54.6953C266.61 55.0469 266.224 55.3926 265.808 55.7324C265.392 56.0723 264.958 56.3975 264.507 56.708C264.062 57.0127 263.616 57.2822 263.171 57.5166ZM272.303 49.4395C272.361 49.5566 272.391 49.7119 272.391 49.9053C272.391 50.0928 272.294 50.3066 272.101 50.5469C272.253 50.7051 272.446 50.8896 272.681 51.1006C272.921 51.3057 273.152 51.5312 273.375 51.7773C273.914 52.3809 274.184 52.958 274.184 53.5088C274.184 53.8721 273.935 54.3145 273.437 54.8359C273.284 55 273.117 55.1523 272.936 55.293C273.545 55.0586 274.277 54.5928 275.133 53.8955L276.161 53.0518C276.759 52.5537 277.157 52.2666 277.356 52.1904C277.562 52.1143 277.746 52.0762 277.91 52.0762C278.074 52.0762 278.232 52.1172 278.385 52.1992C278.543 52.2812 278.622 52.416 278.622 52.6035C278.622 52.7852 278.593 52.9639 278.534 53.1396C278.476 53.3096 278.405 53.4678 278.323 53.6143C278.206 53.8252 278.036 54.042 277.813 54.2646C277.198 54.8447 276.601 55.3779 276.021 55.8643C275.446 56.3447 274.852 56.7578 274.236 57.1035C272.936 57.8301 271.494 58.1934 269.912 58.1934C269.027 58.1934 268.26 57.9678 267.609 57.5166C267.34 57.3291 267.132 57.1357 266.985 56.9365C266.845 56.7314 266.774 56.5732 266.774 56.4619C266.774 56.3447 266.812 56.2246 266.889 56.1016C266.965 55.9727 267.067 55.8408 267.196 55.7061C267.325 55.5713 267.472 55.4365 267.636 55.3018C267.806 55.167 267.979 55.0469 268.154 54.9414C268.564 54.7012 268.869 54.5811 269.068 54.5811C269.273 54.5811 269.429 54.6074 269.534 54.6602C269.64 54.707 269.736 54.7598 269.824 54.8184C270.064 54.9824 270.234 55.0645 270.334 55.0645C270.574 55.0645 270.694 54.9004 270.694 54.5723C270.694 54.2676 270.533 53.9014 270.211 53.4736C270.082 53.2979 269.947 53.125 269.807 52.9551C269.666 52.7852 269.549 52.6182 269.455 52.4541C269.268 52.6709 269.033 52.8936 268.752 53.1221L267.899 53.8428C267.308 54.3525 266.76 54.5957 266.256 54.5723C265.963 54.5488 265.816 54.2236 265.816 53.5967C265.816 53.4854 265.825 53.377 265.843 53.2715C265.872 53.0898 266.051 52.8701 266.379 52.6123C266.707 52.3545 266.944 52.1787 267.091 52.085C267.243 51.9854 267.372 51.8975 267.478 51.8213L268.409 51.1885C268.409 50.5908 268.755 50.043 269.446 49.5449C270.103 49.0762 270.753 48.8418 271.397 48.8418C271.808 48.8418 272.109 49.041 272.303 49.4395ZM289.345 51.54C289.626 51.54 289.767 51.6982 289.767 52.0146C289.767 52.2256 289.693 52.4922 289.547 52.8145C289.406 53.1309 289.201 53.4297 288.932 53.7109C288.662 53.9863 288.352 54.2734 288 54.5723C287.654 54.8711 287.247 55.1846 286.778 55.5127C286.315 55.8408 285.803 56.166 285.24 56.4883C284.678 56.8105 284.08 57.1006 283.447 57.3584C282.047 57.9326 280.69 58.2197 279.378 58.2197C278.376 58.2197 277.5 57.959 276.75 57.4375C275.965 56.8926 275.572 56.2305 275.572 55.4512C275.572 54.2266 276.231 53.0635 277.55 51.9619C278.687 51.0127 280.025 50.2773 281.566 49.7559C282.504 49.4395 283.298 49.2812 283.948 49.2812C284.476 49.2812 284.921 49.4102 285.284 49.668C285.671 49.9492 285.864 50.3271 285.864 50.8018C285.864 51.5459 285.275 52.3691 284.098 53.2715C283.91 53.418 283.74 53.541 283.588 53.6406L283.271 53.8516C282.686 54.2617 281.795 54.7217 280.6 55.2314C280.969 55.4248 281.312 55.5215 281.628 55.5215C281.95 55.5215 282.237 55.4834 282.489 55.4072C282.747 55.3311 283.037 55.2227 283.359 55.082C283.682 54.9414 284.024 54.7744 284.388 54.5811C284.757 54.3818 285.129 54.165 285.504 53.9307C286.342 53.4092 287.068 52.876 287.684 52.3311C288.006 52.0322 288.416 51.7949 288.914 51.6191C289.078 51.5664 289.222 51.54 289.345 51.54ZM279.65 54.0098L280.134 53.7637C280.292 53.6816 280.433 53.6055 280.556 53.5352C281.739 52.8555 282.413 52.4365 282.577 52.2783C282.741 52.1201 282.823 52.0117 282.823 51.9531C282.823 51.8887 282.806 51.8154 282.771 51.7334C282.735 51.6514 282.688 51.5781 282.63 51.5137C282.489 51.3496 282.34 51.2676 282.182 51.2676C282.023 51.2676 281.848 51.2969 281.654 51.3555C281.467 51.4141 281.276 51.4961 281.083 51.6016C280.89 51.7012 280.702 51.8242 280.521 51.9707C280.345 52.1113 280.189 52.2637 280.055 52.4277C279.744 52.7969 279.589 53.1162 279.589 53.3857C279.589 53.6553 279.609 53.8633 279.65 54.0098Z" fill="#FF5E84"/>
<path d="M24.4141 35.0234C22.0052 35.8047 19.401 36.1953 16.6016 36.1953C6.83594 36.1953 1.95312 31.3451 1.95312 21.6445C1.95312 12.4648 6.83594 7.875 16.6016 7.875C19.401 7.875 22.0052 8.26562 24.4141 9.04688V12.1719C22.0052 11.2604 19.5312 10.8047 16.9922 10.8047C9.375 10.8047 5.56641 14.418 5.56641 21.6445C5.56641 29.3919 9.375 33.2656 16.9922 33.2656C19.5312 33.2656 22.0052 32.8099 24.4141 31.8984V35.0234ZM31.3086 36H27.5586L39.4141 8.07031H43.418L55.332 36H51.3281L47.7148 27.2109H38.4766L39.4727 24.2812H46.5039L41.2891 11.625L31.3086 36ZM58.75 35.0234V31.7031C61.6797 32.7448 64.8438 33.2656 68.2422 33.2656C73.0469 33.2656 75.4492 31.5078 75.4492 27.9922C75.4492 24.9974 73.6784 23.5 70.1367 23.5H66.543C60.6966 23.5 57.7734 20.9609 57.7734 15.8828C57.7734 10.5443 61.5169 7.875 69.0039 7.875C72.2591 7.875 75.2865 8.26562 78.0859 9.04688V12.3672C75.2865 11.3255 72.2591 10.8047 69.0039 10.8047C63.9258 10.8047 61.3867 12.4974 61.3867 15.8828C61.3867 18.8776 63.1055 20.375 66.543 20.375H70.1367C76.0872 20.375 79.0625 22.9141 79.0625 27.9922C79.0625 33.4609 75.4557 36.1953 68.2422 36.1953C64.8438 36.1953 61.6797 35.8047 58.75 35.0234ZM85.2539 36H81.5039L93.3594 8.07031H97.3633L109.277 36H105.273L101.66 27.2109H92.4219L93.418 24.2812H100.449L95.2344 11.625L85.2539 36ZM134.375 35.0234C131.836 35.8047 129.232 36.1953 126.562 36.1953C116.797 36.1953 111.914 31.3451 111.914 21.6445C111.914 12.4648 116.797 7.875 126.562 7.875C129.232 7.875 131.836 8.26562 134.375 9.04688V10.8047C131.836 10.0234 129.362 9.63281 126.953 9.63281C118.294 9.63281 113.965 13.6367 113.965 21.6445C113.965 30.1732 118.294 34.4375 126.953 34.4375C129.362 34.4375 131.836 34.0469 134.375 33.2656V35.0234ZM140.352 36V8.07031H151.875C156.927 8.07031 159.453 10.3034 159.453 14.7695C159.453 18.6367 156.712 21.3776 151.23 22.9922L160.664 36H157.852L148.574 23.0508V21.6641C154.303 20.8177 157.168 18.5716 157.168 14.9258C157.168 11.5664 155.293 9.88672 151.543 9.88672H142.402V36H140.352ZM167.52 8.07031V36H165.469V8.07031H167.52ZM174.512 36H172.324L184.961 8.07031H187.402L200.098 36H197.656L193.516 26.625H180.996L181.602 24.8672H192.754L186.055 9.67188L174.512 36ZM221.973 8.07031V9.82812H212.402V36H210.352V9.82812H200.977V8.07031H221.973ZM228.34 8.07031V36H226.289V8.07031H228.34ZM260.918 8.07031L248.672 36H245.449L233.145 8.07031H235.391L247.129 34.418L258.73 8.07031H260.918ZM264.473 36H262.285L274.922 8.07031H277.363L290.059 36H287.617L283.477 26.625H270.957L271.562 24.8672H282.715L276.016 9.67188L264.473 36Z" fill="#25282B"/>
</svg>
