<svg id="Capa_1" enable-background="new 0 0 512 512" height="512" viewBox="0 0 512 512" width="512" xmlns="http://www.w3.org/2000/svg"><g id="XMLID_1150_"><path id="XMLID_3563_" d="m43 190v312h426v-312l-213-143.5z" fill="#f8f8f8"/><path id="XMLID_3557_" d="m403.667 105.727v-52.06h44.333v84.499z" fill="#9da5be"/><g id="XMLID_3555_"><path id="XMLID_3556_" d="m468.676 209.68-212.676-141.968-212.675 141.968-26.649-39.923 239.324-159.757 239.325 159.757z" fill="#ff7a7a"/></g><g id="XMLID_3553_"><path id="XMLID_3554_" d="m468.676 209.68-212.676-141.968-212.675 141.968-26.649-39.923 239.324-159.757 239.325 159.757z" fill="#ff7a7a"/></g><g id="XMLID_1958_"><path id="XMLID_1959_" d="m193.943 279.447-13.799-41.396c-4.144-12.43-2.043-26.196 5.618-36.825s20.057-16.975 33.159-16.975h74.158c13.102 0 25.498 6.346 33.159 16.974 7.661 10.629 9.761 24.396 5.618 36.826l-13.692 41.075-38.122-12.126 13.867-41.599c.06-.179.142-.424-.12-.788-.262-.363-.521-.363-.709-.363h-74.158c-.189 0-.448 0-.709.363-.262.363-.18.608-.12.788l13.865 41.599z" fill="#9da5be"/></g><circle id="XMLID_1953_" cx="256" cy="383.125" fill="#9da5be" r="118.875"/><g id="XMLID_3034_"><g fill="#e0e1e7"><path id="XMLID_3048_" d="m186 403h140v44h-140z"/><path id="XMLID_3045_" d="m404 447h-22v-44h22c12.15 0 22 9.85 22 22 0 12.151-9.849 22-22 22z"/><path id="XMLID_3042_" d="m108 447h22v-44h-22c-12.15 0-22 9.85-22 22 0 12.151 9.85 22 22 22z"/></g><path id="XMLID_3041_" d="m365.334 348h-22.667c-9.205 0-16.667 7.462-16.667 16.667v120.667c0 9.205 7.462 16.667 16.667 16.667h22.667c9.205 0 16.667-7.462 16.667-16.667v-120.667c-.001-9.205-7.463-16.667-16.667-16.667z" fill="#a0c8ff"/><path id="XMLID_3040_" d="m169.334 348h-22.667c-9.205 0-16.667 7.462-16.667 16.667v120.667c0 9.205 7.462 16.667 16.667 16.667h22.667c9.205 0 16.667-7.462 16.667-16.667v-120.667c-.001-9.205-7.463-16.667-16.667-16.667z" fill="#a0c8ff"/></g><g id="XMLID_256_"><path id="XMLID_345_" d="m502 492h-23v-279.776l24.642-36.916c3.066-4.594 1.828-10.803-2.766-13.869l-42.876-28.621v-79.15c0-5.522-4.477-10-10-10h-44.333c-5.523 0-10 4.478-10 10v36.206l-132.115-88.191c-3.361-2.244-7.742-2.244-11.104 0l-239.324 159.756c-4.594 3.066-5.832 9.275-2.766 13.869l24.642 36.916v98.373c0 5.522 4.477 10 10 10s10-4.478 10-10v-95.353l203-135.508 203 135.508v276.756h-67.844c.551-2.132.844-4.366.844-6.667v-28.333h12c17.645 0 32-14.355 32-32s-14.355-32-32-32h-12v-28.333c0-10.174-5.729-19.033-14.13-23.528-8.316-24.074-23.942-45.601-44.389-61.006-1.357-1.023-2.732-2.013-4.12-2.977l11.981-35.945c5.157-15.472 2.542-32.606-6.993-45.836-9.536-13.229-24.964-21.126-41.271-21.126h-74.158c-16.308 0-31.737 7.898-41.271 21.127-9.536 13.229-12.149 30.364-6.992 45.835l11.981 35.944c-1.388.964-2.762 1.954-4.119 2.976-20.447 15.406-36.074 36.933-44.39 61.007-8.4 4.494-14.13 13.353-14.13 23.528v28.334h-12c-17.645 0-32 14.355-32 32s14.355 32 32 32h12v28.333c0 2.301.293 4.535.844 6.667h-67.843v-91.403c0-5.522-4.477-10-10-10s-10 4.478-10 10v91.403h-23c-5.523 0-10 4.478-10 10s4.477 10 10 10h492c5.523 0 10-4.478 10-10s-4.477-10-10-10zm-88.333-428.333h24.333v55.8l-24.333-16.243zm-157.667-5.955c-1.936 0-3.871.561-5.552 1.683l-204.358 136.415-15.545-23.288 225.455-150.498 225.456 150.498-15.546 23.288-204.358-136.415c-1.681-1.122-3.616-1.683-5.552-1.683zm148 355.288c6.617 0 12 5.383 12 12s-5.383 12-12 12h-12v-24zm-214.369-178.112c-3.13-9.389-1.543-19.787 4.243-27.816 5.787-8.028 15.15-12.821 25.047-12.821h74.158c9.896 0 19.259 4.793 25.046 12.821s7.373 18.427 4.244 27.816l-10.659 31.978c-6.036-2.904-12.275-5.312-18.674-7.225l10.359-31.078c1.117-3.351.575-6.917-1.501-9.806-2.069-2.864-5.282-4.507-8.815-4.507h-74.158c-3.539 0-6.755 1.646-8.815 4.508-2.074 2.871-2.621 6.444-1.501 9.805l10.359 31.078c-6.399 1.913-12.638 4.321-18.674 7.225zm49.008 20.534-7.057-21.172h48.836l-7.057 21.172c-5.71-.763-11.502-1.172-17.361-1.172-5.858 0-11.651.409-17.361 1.172zm17.361 18.828c42.71 0 81.598 25.608 99.082 63.75h-12.415c-14.704 0-26.667 11.963-26.667 26.667v28.333h-120v-28.333c0-14.704-11.962-26.667-26.666-26.667h-12.415c17.483-38.141 56.372-63.75 99.081-63.75zm60 162.75h-120v-24h120zm-120 36.979v-16.979h120v16.98c-17.807 11.8-38.441 18.02-60 18.02-21.558 0-42.193-6.221-60-18.021zm-88-36.979c-6.617 0-12-5.383-12-12s5.383-12 12-12h12v24zm38.667 55c-3.676 0-6.667-2.991-6.667-6.667v-120.666c0-3.676 2.991-6.667 6.667-6.667h22.667c3.676 0 6.667 2.991 6.667 6.667v120.666c0 3.676-2.991 6.667-6.667 6.667zm196 0c-3.676 0-6.667-2.991-6.667-6.667v-120.666c0-3.676 2.991-6.667 6.667-6.667h22.667c3.676 0 6.667 2.991 6.667 6.667v120.666c0 3.676-2.991 6.667-6.667 6.667z"/><path id="XMLID_476_" d="m43 365.6c2.63 0 5.21-1.069 7.07-2.93s2.93-4.44 2.93-7.07-1.07-5.21-2.93-7.069c-1.86-1.87-4.44-2.931-7.07-2.931s-5.21 1.061-7.07 2.931c-1.86 1.859-2.93 4.429-2.93 7.069 0 2.63 1.07 5.21 2.93 7.07 1.86 1.861 4.44 2.93 7.07 2.93z"/></g></g></svg>